<?xml version="1.0" encoding="utf-8"?>
<!-- Generator: Adobe Illustrator 18.0.0, SVG Export Plug-In . SVG Version: 6.00 Build 0)  -->
<!DOCTYPE svg PUBLIC "-//W3C//DTD SVG 1.1//EN" "http://www.w3.org/Graphics/SVG/1.1/DTD/svg11.dtd">
<svg class="svg-icon" style="enable-background:new 0 0 1024 1024;" viewBox="0 0 1024 1024" version="1.1" xmlns="http://www.w3.org/2000/svg" xml:space="preserve">
    <g>
        <path d="M926.37 290.66H96.63c-16.416 0-29.77 13.354-29.77 29.771v322.676c0 16.415 13.354 29.77 29.77 29.77h0.961v47.058c0 7.956 6.45 14.404 14.405 14.404h799.007c7.956 0 14.406-6.448 14.406-14.404v-47.058h0.96c16.415 0 29.77-13.354 29.77-29.77V320.432c0.001-16.417-13.354-29.772-29.769-29.772zM280.057 644.067v-32.649h370.694v32.649H280.057z m48.017-184.385h-48.017V427.03h48.017v32.652z m214.157-32.652c0.529 0 0.96 0.43 0.96 0.96v30.731a0.961 0.961 0 0 1-0.96 0.961H510.54V427.03h31.691z m108.52 155.574H510.54V565.32h140.211v17.284z m-169.021 0h-32.653V427.03h32.653v155.574z m-61.462 0H280.057V565.32h140.211v17.284z m230.483-46.094H510.54v-48.018h31.691c16.416 0 29.771-13.355 29.771-29.771V427.99c0-16.416-13.354-29.771-29.771-29.771H434.673c-7.955 0-14.405 6.45-14.405 14.405V536.51H280.057v-48.018h48.017v0.96c0 7.955 6.45 14.405 14.405 14.405 7.955 0 14.405-6.45 14.405-14.405v-92.193c0-7.956-6.45-14.405-14.405-14.405-7.956 0-14.405 6.45-14.405 14.405v0.96h-48.017V319.47h370.694v217.04zM95.67 643.107V320.432c0-0.53 0.43-0.961 0.96-0.961h154.616v324.597H96.63a0.961 0.961 0 0 1-0.96-0.961z m800.929 62.422H126.401v-32.652h770.197v32.652z m-30.732-61.462H741.023V488.492h124.844v155.575z m61.463-0.96a0.96 0.96 0 0 1-0.96 0.96h-31.691V474.086c0-7.955-6.449-14.405-14.406-14.405H726.618c-7.957 0-14.406 6.45-14.406 14.405v169.981h-32.651V319.471h246.81c0.529 0 0.96 0.431 0.96 0.961v322.675z"  />
        <path d="M741.983 352.123h-15.365c-7.957 0-14.406 6.45-14.406 14.405 0 7.956 6.449 14.406 14.406 14.406h15.365c7.955 0 14.404-6.45 14.404-14.406 0.001-7.956-6.449-14.405-14.404-14.405zM818.812 352.123H788.08c-7.956 0-14.406 6.45-14.406 14.405 0 7.956 6.45 14.406 14.406 14.406h30.731c7.955 0 14.405-6.45 14.405-14.406 0.001-7.956-6.449-14.405-14.404-14.405zM880.272 352.123h-15.365c-7.955 0-14.404 6.45-14.404 14.405 0 7.956 6.449 14.406 14.404 14.406h15.365c7.957 0 14.406-6.45 14.406-14.406 0.001-7.956-6.449-14.405-14.406-14.405zM741.983 398.219h-15.365c-7.957 0-14.406 6.45-14.406 14.405 0 7.956 6.449 14.406 14.406 14.406h15.365c7.955 0 14.404-6.45 14.404-14.406 0.001-7.955-6.449-14.405-14.404-14.405zM818.812 398.219H788.08c-7.956 0-14.406 6.45-14.406 14.405 0 7.956 6.45 14.406 14.406 14.406h30.731c7.955 0 14.405-6.45 14.405-14.406 0.001-7.955-6.449-14.405-14.404-14.405zM880.272 398.219h-15.365c-7.955 0-14.404 6.45-14.404 14.405 0 7.956 6.449 14.406 14.404 14.406h15.365c7.957 0 14.406-6.45 14.406-14.406 0.001-7.955-6.449-14.405-14.406-14.405zM204.19 611.418c7.955 0 14.405-6.451 14.405-14.408V366.527c0-7.955-6.45-14.405-14.405-14.405s-14.405 6.45-14.405 14.405V597.01c0 7.957 6.45 14.408 14.405 14.408zM142.728 611.418c7.955 0 14.405-6.451 14.405-14.408V366.527c0-7.955-6.45-14.405-14.405-14.405s-14.405 6.45-14.405 14.405V597.01c0 7.957 6.449 14.408 14.405 14.408zM772.714 549.955h61.463c7.955 0 14.404-6.451 14.404-14.407 0-7.954-6.449-14.405-14.404-14.405h-61.463c-7.955 0-14.404 6.451-14.404 14.405 0 7.956 6.449 14.407 14.404 14.407zM772.714 611.418h61.463c7.955 0 14.404-6.451 14.404-14.408 0-7.954-6.449-14.405-14.404-14.405h-61.463c-7.955 0-14.404 6.451-14.404 14.405 0 7.957 6.449 14.408 14.404 14.408z"  />
    </g>
    <g>
    </g>
</svg>