<?xml version="1.0" encoding="utf-8"?>
<!-- Svg Vector Icons : http://www.onlinewebfonts.com/icon -->
<!DOCTYPE svg PUBLIC "-//W3C//DTD SVG 1.1//EN" "http://www.w3.org/Graphics/SVG/1.1/DTD/svg11.dtd">
<svg version="1.1" xmlns="http://www.w3.org/2000/svg" xmlns:xlink="http://www.w3.org/1999/xlink" x="0px" y="0px" viewBox="0 0 1000 1000" enable-background="new 0 0 1000 1000" xml:space="preserve">
<metadata> Svg Vector Icons : http://www.onlinewebfonts.com/icon </metadata>
<g><g transform="translate(0.000000,511.000000) scale(0.100000,-0.100000)"><path d="M3680.8,4444.6v-565.4H3457c-207.3,0-230.9-4.7-282.7-58.9c-56.5-54.2-58.9-68.3-58.9-376.9v-318h-346.3c-299.2,0-362.8-7.1-454.7-49.5c-141.3-63.6-207.3-127.2-273.3-268.6c-51.8-106-56.5-148.4-56.5-464.1v-348.7h-318c-308.6,0-322.7-2.4-376.9-58.9c-54.2-51.8-58.9-75.4-58.9-282.7v-223.8H665.4H100v-188.5v-188.5h565.4h565.4V863.8V675.4H665.4H100V486.9V298.5h565.4h565.4V110V-78.5H665.4H100v-188.5v-188.5h565.4h565.4v-188.5v-188.5H665.4H100v-188.5v-188.5h565.4h565.4V-1433c0-207.3,4.7-230.9,58.9-282.7c54.2-56.5,68.3-58.9,376.9-58.9h318v-346.3c0-318,4.7-360.4,56.5-466.4c66-141.3,131.9-205,273.3-268.6c91.9-42.4,155.5-49.5,454.7-49.5h346.3v-318c0-308.6,2.4-322.7,58.9-376.9c51.8-54.2,75.4-58.9,282.7-58.9h223.8v-565.4V-4790h188.5h188.5v565.4v565.4h188.5h188.5v-565.4V-4790h188.5h188.5v565.4v565.4H5000h188.5v-565.4V-4790h188.5h188.5v565.4v565.4h188.5h188.5v-565.4V-4790h188.5h188.5v565.4v565.4H6543c207.3,0,230.9,4.7,282.7,58.9c56.5,54.2,58.9,68.3,58.9,376.9v318h348.7c296.8,0,360.4,7.1,452.3,49.5c141.3,63.6,207.3,127.2,273.3,268.6c51.8,106,56.5,148.4,56.5,466.4v346.3h318c308.6,0,322.7,2.3,376.9,58.9c54.2,51.8,58.9,75.4,58.9,282.7v223.8h565.4H9900v188.5v188.5h-565.4h-565.4v188.5v188.5h565.4H9900v188.5v188.5h-565.4h-565.4V110v188.5h565.4H9900v188.5v188.5h-565.4h-565.4v188.5v188.5h565.4H9900v188.5v188.5h-565.4h-565.4V1653c0,207.3-4.7,230.9-58.9,282.7c-54.2,56.5-68.3,58.9-376.9,58.9h-318v348.7c0,296.8-7.1,360.4-49.5,452.3c-63.6,141.3-127.2,207.3-268.6,273.3c-106,51.8-148.4,56.5-464.1,56.5h-348.7v294.5c0,308.6-25.9,414.6-106,445.2c-21.2,7.1-134.3,14.1-249.7,14.1h-209.7v565.4V5010h-188.5h-188.5v-565.4v-565.4h-188.5h-188.5v565.4V5010h-188.5h-188.5v-565.4v-565.4H5000h-188.5v565.4V5010h-188.5h-188.5v-565.4v-565.4h-188.5h-188.5v565.4V5010h-188.5h-188.5V4444.6z M6507.7,3313.8v-188.5H5000H3492.3v188.5v188.5H5000h1507.7V3313.8z M7584.3,2696.6l54.2-49.5V112.4v-2532.5l-51.8-54.2l-49.5-54.2H5002.4H2469.9l-54.2,51.8l-54.2,49.5V107.6v2532.5l51.8,54.2l49.5,54.2h2534.8h2532.5L7584.3,2696.6z M1984.6,110v-1507.7h-188.5h-188.5V110v1507.7h188.5h188.5V110z M8392.3,110v-1507.7h-188.5h-188.5V110v1507.7h188.5h188.5V110z M6507.7-3093.8v-188.5H5000H3492.3v188.5v188.5H5000h1507.7V-3093.8z"/></g></g>
</svg>